<?xml version="1.0" encoding="UTF-8"?>
<svg width="42px" height="42px" viewBox="0 0 42 42" version="1.1" xmlns="http://www.w3.org/2000/svg" xmlns:xlink="http://www.w3.org/1999/xlink">
    <!-- Generator: Sketch 63.1 (92452) - https://sketch.com -->
    <title>instagram</title>
    <desc>Created with Sketch.</desc>
    <defs>
        <polygon id="path-1" points="2.36232668e-21 0.0174971614 2.36232668e-21 17.8231737 17.8491399 17.8231737 17.8491399 0.0174971614"></polygon>
    </defs>
    <g id="Landing" stroke="none" stroke-width="1" fill="none" fill-rule="evenodd" opacity="0.456125453">
        <g id="Desktop" transform="translate(-232.000000, -600.000000)">
            <g id="social-icon" transform="translate(108.000000, 601.000000)">
                <g id="instagram" transform="translate(124.000000, 0.000000)">
                    <circle id="Oval-4-Copy-3" stroke="#FFFFFF" cx="20.9333333" cy="20" r="20"></circle>
                    <g id="Group-3" transform="translate(12.000000, 11.025996)">
                        <mask id="mask-2" fill="white">
                            <use xlink:href="#path-1"></use>
                        </mask>
                        <g id="Clip-2"></g>
                        <path d="M16.2655432,12.9094057 C16.2655432,14.7477596 14.7662248,16.24343 12.9233871,16.24343 L4.92556982,16.24343 C3.08290641,16.24343 1.58358803,14.7477596 1.58358803,12.9094057 L1.58358803,4.93130868 C1.58358803,3.09295474 3.08290641,1.5971974 4.92556982,1.5971974 L12.9233871,1.5971974 C14.7662248,1.5971974 16.2655432,3.09295474 16.2655432,4.93130868 L16.2655432,12.9094057 Z M12.9233871,0.0174971614 L4.92556982,0.0174971614 C2.20966218,0.0174971614 -8.71544715e-06,2.22179173 -8.71544715e-06,4.93130868 L-8.71544715e-06,12.9094057 C-8.71544715e-06,15.6188792 2.20966218,17.8231737 4.92556982,17.8231737 L12.9233871,17.8231737 C15.639469,17.8231737 17.8491399,15.6188792 17.8491399,12.9094057 L17.8491399,4.93130868 C17.8491399,2.22179173 15.639469,0.0174971614 12.9233871,0.0174971614 L12.9233871,0.0174971614 Z" id="Fill-1" fill="#FFFFFF" mask="url(#mask-2)"></path>
                    </g>
                    <path d="M20.9244828,22.9544563 C19.2619241,22.9544563 17.9089817,21.6051099 17.9089817,19.9464225 C17.9089817,18.2877351 19.2617498,16.9382584 20.9244828,16.9382584 C22.5873901,16.9382584 23.9401582,18.2877351 23.9401582,19.9464225 C23.9401582,21.6051099 22.5872158,22.9544563 20.9244828,22.9544563 M20.9244828,15.3585146 C18.3885056,15.3585146 16.3252106,17.4166155 16.3252106,19.9465964 C16.3252106,22.4764034 18.3885056,24.5343304 20.9244828,24.5343304 C23.4606343,24.5343304 25.523755,22.4764034 25.523755,19.9465964 C25.523755,17.4166155 23.4606343,15.3585146 20.9244828,15.3585146" id="Fill-4" fill="#FFFFFF"></path>
                    <path d="M25.7167847,14.0188928 C25.4115698,14.0188928 25.111802,14.1421772 24.8963125,14.3580117 C24.6797772,14.572803 24.5553642,14.8720153 24.5553642,15.1774875 C24.5553642,15.4819598 24.6799515,15.7808244 24.8963125,15.9968328 C25.111802,16.2116241 25.4115698,16.3359517 25.7167847,16.3359517 C26.0228276,16.3359517 26.3217675,16.2116241 26.5381285,15.9968328 C26.7544459,15.7808244 26.8780309,15.481786 26.8780309,15.1774875 C26.8780309,14.8720153 26.7544459,14.572803 26.5381285,14.3580117 C26.3227698,14.1421772 26.0228276,14.0188928 25.7167847,14.0188928" id="Fill-6" fill="#FFFFFF"></path>
                </g>
            </g>
        </g>
    </g>
</svg>