<?xml version="1.0" encoding="UTF-8"?>
<svg width="400px" height="459px" viewBox="0 0 400 459" version="1.1" xmlns="http://www.w3.org/2000/svg" xmlns:xlink="http://www.w3.org/1999/xlink">
    <!-- Generator: Sketch 63.1 (92452) - https://sketch.com -->
    <title>Image</title>
    <desc>Created with Sketch.</desc>
    <g id="Page-1" stroke="none" stroke-width="1" fill="none" fill-rule="evenodd">
        <g id="Image" transform="translate(0.000000, -0.836123)" fill-rule="nonzero">
            <path d="M370.497081,311.299276 C370.497081,311.770247 370.497081,312.162722 370.497081,312.594445 C369.514282,323.544506 360.079405,346.896787 350.841088,367.540988 C351.155584,374.998019 351.391456,381.670099 351.430768,387.164754 C351.430768,388.18519 351.430768,389.12713 351.430768,390.069071 L350.29072,390.069071 C350.565904,394.935765 350.919712,403.373984 351.194896,413.068124 C317.190028,433.594583 275.047579,446.03605 231.175403,456.240408 L223.666813,457.928052 C217.145578,459.406945 210.456401,460.014055 203.774948,459.733439 C203.372988,458.091027 203.22713,456.396553 203.342516,454.709755 C204.271798,432.582757 206.582588,410.53517 210.261426,388.695407 L207.824083,388.34218 C216.747904,358.278571 221.22947,314.910049 223.548877,277.271667 L223.548877,277.271667 C223.824061,272.836696 224.059933,268.519467 224.256493,264.241486 C218.556255,270.050121 214.625056,273.660894 214.625056,273.660894 L202.556277,253.840891 C187.657034,264.594714 173.583343,274.092617 166.703745,278.48834 C161.003507,283.826004 151.293447,284.610955 143.666922,274.563587 C131.322958,258.432852 113.907748,190.730861 111.863525,179.231334 C111.565208,179.118742 111.286588,178.959792 111.037973,178.760364 C108.20751,174.835611 98.3008896,153.445706 99.2443773,149.285468 C100.187865,145.12523 104.826679,136.137545 110.212421,134.920872 C109.58343,132.997743 108.875814,130.996118 107.853702,128.209544 C105.573607,122.008434 102.86108,115.728829 106.949527,116.435284 C111.037973,117.14174 120.394226,139.983803 122.006017,143.908556 C122.241889,142.063922 122.477761,140.572516 122.477761,140.572516 C123.735745,136.883248 130.340158,134.920872 129.357359,140.572516 C128.217311,148.422022 130.96915,152.346775 130.851214,158.822618 C130.851214,159.175846 130.851214,159.568321 130.851214,160.117787 C130.866956,160.353009 130.866956,160.589019 130.851214,160.824242 C130.872185,160.99367 130.872185,161.165032 130.851214,161.33446 C130.851214,161.33446 130.851214,161.530698 130.851214,161.609193 C129.894117,166.432354 128.19681,171.079058 125.81928,175.385076 L125.81928,175.385076 C130.104286,189.357197 149.760279,225.896649 161.200067,246.030632 C168.197601,240.221997 176.924862,233.314432 185.966619,226.406866 L185.180379,225.111698 C185.180379,225.111698 231.804394,181.586186 255.941954,178.289393 C256.295762,176.60175 256.531634,174.757116 256.767506,172.833987 C257.003377,170.910858 257.160625,167.653312 257.239249,164.98448 C239.509544,164.788243 237.85844,151.758062 239.62748,135.195604 L236.836329,134.489149 L240.964087,123.81382 L240.964087,123.02887 C240.510826,122.502134 240.2478,121.838737 240.217159,121.144988 C240.217159,119.84982 240.570967,118.750889 241.278583,118.711641 C241.379699,118.672234 241.491962,118.672234 241.593079,118.711641 C241.593079,117.769701 241.907575,116.82776 242.025511,115.885819 C242.340007,113.8057 242.733127,111.961066 243.126246,110.037937 C242.07488,109.831633 240.993342,109.831633 239.941975,110.037937 L239.62748,108.114808 C240.927638,107.883496 242.25852,107.883496 243.558678,108.114808 C244.863405,102.85272 246.971622,97.8224737 249.809284,93.2007461 C244.148358,92.8082708 241.475143,90.9636368 245.406342,86.4109232 C251.499699,79.3463676 280.354697,75.8140898 294.900132,78.7969022 C300.01069,79.8565855 303.352209,81.7012195 303.391521,84.4485466 C303.391521,84.7625269 303.391521,84.9587646 303.391521,85.2334973 L303.391521,85.2334973 C304.879198,84.6050277 306.15976,83.5713775 307.086848,82.2506849 L308.737951,83.3496158 C307.789193,84.6897272 306.553808,85.8024321 305.121248,86.6071609 L304.531569,86.9211411 C320.099115,97.0470041 298.084403,151.287092 298.005779,151.287092 C297.573347,160.588757 297.298163,169.772679 297.337475,176.248522 C311.332542,177.857671 320.177739,181.939414 326.035225,188.336761 C341.760019,200.935219 365.897579,252.624217 365.897579,252.624217 L356.03027,255.214554 C363.067116,277.742637 369.042538,300.349215 370.772265,307.923989 C370.82406,309.056179 370.731592,310.190352 370.497081,311.299276 Z" id="Path" fill="#D1CDD3"></path>
            <rect id="Rectangle" fill="#4D8DFF" opacity="0.3" transform="translate(164.808317, 121.918289) rotate(180.000000) translate(-164.808317, -121.918289) " x="32.9044834" y="19.2542213" width="263.807667" height="205.328135" rx="33.6"></rect>
            <path d="M278.354776,244.075534 L31.7682426,244.075534 C14.4527968,244.075534 0.415854451,229.963796 0.415854451,212.556086 L0.415854451,32.5800372 C0.415854451,15.1723267 14.4527968,1.06058908 31.7682426,1.06058908 L278.354776,1.06058908 C295.670222,1.06058908 309.707385,15.1723267 309.707385,32.5800372 L309.707385,212.437888 C309.738422,220.817826 306.449038,228.865319 300.565934,234.801951 C294.682829,240.738583 286.690357,244.075534 278.354776,244.075534 Z M31.7682426,1.9273739 C14.937923,1.94908015 1.29963633,15.6600379 1.27804513,32.5800372 L1.27804513,212.437888 C1.29963633,229.357887 14.937923,243.068845 31.7682426,243.090551 L278.354776,243.090551 C295.185095,243.068845 308.823382,229.357887 308.844973,212.437888 L308.844973,32.5800372 C308.823382,15.6600379 295.185095,1.94908015 278.354776,1.9273739 L31.7682426,1.9273739 Z" id="Shape" fill="#4D8DFF" opacity="0.3"></path>
            <g id="Group" opacity="0.3" transform="translate(56.296296, 45.245124)" fill="#4D8DFF">
                <rect id="Rectangle" transform="translate(22.040750, 17.548699) rotate(180.000000) translate(-22.040750, -17.548699) " x="0.117655249" y="0.648517846" width="43.8461895" height="33.800363" rx="5.6"></rect>
                <rect id="Rectangle" transform="translate(80.397754, 17.548699) rotate(180.000000) translate(-80.397754, -17.548699) " x="58.4746589" y="0.648517846" width="43.8461895" height="33.800363" rx="5.6"></rect>
                <rect id="Rectangle" transform="translate(138.793976, 17.548699) rotate(180.000000) translate(-138.793976, -17.548699) " x="116.870881" y="0.648517846" width="43.8461895" height="33.800363" rx="5.6"></rect>
                <rect id="Rectangle" transform="translate(197.190198, 17.548699) rotate(180.000000) translate(-197.190198, -17.548699) " x="175.267103" y="0.648517846" width="43.8461895" height="33.800363" rx="5.6"></rect>
            </g>
            <g id="Group" opacity="0.3" transform="translate(56.296296, 105.024202)" fill="#4D8DFF">
                <rect id="Rectangle" transform="translate(22.040750, 17.587417) rotate(180.000000) translate(-22.040750, -17.587417) " x="0.117655249" y="0.68723533" width="43.8461895" height="33.800363" rx="5.6"></rect>
                <rect id="Rectangle" transform="translate(80.397754, 17.587417) rotate(180.000000) translate(-80.397754, -17.587417) " x="58.4746589" y="0.68723533" width="43.8461895" height="33.800363" rx="5.6"></rect>
                <rect id="Rectangle" transform="translate(138.793976, 17.587417) rotate(180.000000) translate(-138.793976, -17.587417) " x="116.870881" y="0.68723533" width="43.8461895" height="33.800363" rx="5.6"></rect>
                <rect id="Rectangle" transform="translate(197.190198, 17.587417) rotate(180.000000) translate(-197.190198, -17.587417) " x="175.267103" y="0.68723533" width="43.8461895" height="33.800363" rx="5.6"></rect>
            </g>
            <g id="Group" opacity="0.3" transform="translate(56.296296, 163.503734)" fill="#4D8DFF">
                <rect id="Rectangle" transform="translate(22.040750, 17.587417) rotate(180.000000) translate(-22.040750, -17.587417) " x="0.117655249" y="0.68723533" width="43.8461895" height="33.800363" rx="5.6"></rect>
                <rect id="Rectangle" transform="translate(80.397754, 17.587417) rotate(180.000000) translate(-80.397754, -17.587417) " x="58.4746589" y="0.68723533" width="43.8461895" height="33.800363" rx="5.6"></rect>
                <rect id="Rectangle" transform="translate(138.793976, 17.587417) rotate(180.000000) translate(-138.793976, -17.587417) " x="116.870881" y="0.68723533" width="43.8461895" height="33.800363" rx="5.6"></rect>
                <rect id="Rectangle" transform="translate(197.190198, 17.587417) rotate(180.000000) translate(-197.190198, -17.587417) " x="175.267103" y="0.68723533" width="43.8461895" height="33.800363" rx="5.6"></rect>
            </g>
            <rect id="Rectangle" fill="#4D8DFF" transform="translate(200.545809, 56.941031) rotate(180.000000) translate(-200.545809, -56.941031) " x="178.453541" y="40.0469439" width="44.1845354" height="33.7881741" rx="5.6"></rect>
            <rect id="Rectangle" fill="#FF4E4A" transform="translate(200.545809, 175.199640) rotate(180.000000) translate(-200.545809, -175.199640) " x="178.453541" y="158.305553" width="44.1845354" height="33.7881741" rx="5.6"></rect>
            <rect id="Rectangle" fill="#FFC84D" transform="translate(83.586745, 116.720108) rotate(180.000000) translate(-83.586745, -116.720108) " x="61.4944769" y="99.8260212" width="44.1845354" height="33.7881741" rx="5.6"></rect>
            <path d="M326.601689,118.019653 C325.289559,126.611297 322.742483,173.195347 323.784469,183.836374 C324.826454,194.477401 273.614786,197.70912 280.445581,185.846346 C287.276376,173.983572 282.413776,134.611773 282.413776,134.611773 L326.601689,118.019653 Z" id="Path" fill="#F2D1B6"></path>
            <path d="M324.002599,119.319199 L282.417154,134.568578 C283.974427,147.618309 284.344548,160.783089 283.522939,173.900095 C300.662601,166.810124 296.871339,152.392529 296.871339,144.629208 C296.871339,137.578845 324.042048,120.665897 324.002599,119.319199 Z" id="Path" fill="#E6B591"></path>
            <polygon id="Path" fill="#F2D1B6" points="270.617284 120.618744 264.223522 134.33784 272.020793 137.512831"></polygon>
            <path d="M268.864545,116.159142 C264.907723,142.451969 258.418536,168.66666 290.706198,164.330102 C322.993859,159.993544 327.979454,119.206454 327.900318,111.470971 C327.385931,70.3713367 276.461641,64.5111226 268.864545,116.159142 Z" id="Path" fill="#F2D1B6"></path>
            <path d="M332.918008,87.0505404 C334.565232,86.1890914 335.995915,84.957747 337.1006,83.4507157 L335.458835,82.3430773 C334.461201,83.6973459 333.106343,84.7393888 331.549871,85.3495243 C331.571028,85.0730286 331.571028,84.7952912 331.549871,84.5187955 C331.549871,73.7588798 282.062386,76.8444438 273.892651,86.4571627 C269.045536,92.1535887 274.205369,93.6568122 282.570552,93.3799026 C281.949449,93.8636859 281.486396,94.5252488 281.241504,95.2787113 C275.729865,122.613644 301.763565,149.513434 304.695288,151.807828 L325.960052,151.807828 C325.960052,151.807828 348.241147,97.0984029 332.918008,87.0505404 Z" id="Path" fill="#232323"></path>
            <path d="M399.284138,308.073952 C396.430576,295.389594 381.568276,240.503074 369.757702,214.185995 L339.597141,220.587447 C339.597141,220.587447 359.056846,285.471296 369.401007,309.694073 C366.983406,322.734067 354.776503,383.389796 347.246271,400.341788 C343.917116,408.244815 356.520347,411.28748 359.572072,407.494028 C362.623798,403.700575 397.262865,334.312001 399.204872,312.657708 C399.204872,312.183526 399.204872,311.788375 399.204872,311.353708 C399.402656,310.271265 399.429401,309.164637 399.284138,308.073952 L399.284138,308.073952 Z" id="Path" fill="#F2D1B6"></path>
            <path d="M352.55919,188.893791 C368.386198,201.084701 392.878493,252.92528 392.878493,252.92528 L341.045041,266.167802 C341.045041,266.167802 310.894591,156.80015 352.55919,188.893791 Z" id="Path" fill="#6C4EBE"></path>
            <path d="M378.583496,394.157955 C370.20777,401.576833 361.144739,408.173858 351.518241,413.858888 C317.588611,434.466064 275.539404,446.956455 231.764297,457.20094 C231.725091,456.689473 231.725091,456.175734 231.764297,455.664267 C233.176397,431.274513 235.686798,403.417394 239.609298,385.725956 L351.832041,387.971863 L378.348146,388.523489 C378.348146,389.863152 378.583496,391.754442 378.583496,394.157955 Z" id="Path" fill="#232323"></path>
            <path d="M314.241958,176.595845 C344.960744,177.616304 355.369912,188.017132 360.652761,206.03215 C366.679121,226.441322 377.283951,349.877561 377.283951,391.088388 C377.283951,391.088388 285.284122,397.642872 234.333983,389.243713 C250.299925,335.12016 252.021743,237.82336 252.373932,208.701042 C252.608726,187.07517 275.266276,175.300648 314.241958,176.595845 Z" id="Path" fill="#6C4EBE"></path>
            <path d="M320.641394,198.591389 C319.737473,198.597552 318.885053,198.16358 318.347595,197.423537 L310.281069,186.368506 C309.629448,185.483858 309.524633,184.300273 310.010322,183.311205 C310.496011,182.322138 311.488834,181.697366 312.574868,181.697366 L325.076072,181.697366 C325.99548,181.72326 326.848551,182.190881 327.375998,182.958099 C327.903446,183.725317 328.042973,184.701515 327.752171,185.589983 L323.393953,196.645014 C323.002345,197.619324 322.125897,198.303504 321.100154,198.435618 L320.641394,198.591389 Z M312.498408,183.643675 C312.126065,183.635375 311.782899,183.848063 311.619118,184.188641 C311.424106,184.496784 311.424106,184.892579 311.619118,185.200721 L319.762104,196.255752 C319.965458,196.536642 320.300953,196.685166 320.641394,196.645014 C320.992849,196.604803 321.290316,196.362495 321.405994,196.022195 L325.764212,185.00609 C325.936429,184.719366 325.936429,184.358586 325.764212,184.071862 C325.584302,183.800801 325.282666,183.639924 324.961382,183.643675 L312.498408,183.643675 Z" id="Shape" fill="#FFFFFF"></path>
            <path d="M270.004553,121.810936 C270.004553,123.250789 269.653676,124.472483 268.951922,124.516115 C268.250167,124.559747 267.626385,123.468949 267.548413,122.029095 C267.47044,120.589242 267.89929,119.41118 268.601044,119.323916 C269.302799,119.236652 269.92658,120.371082 270.004553,121.810936 Z" id="Path"></path>
            <path d="M274.347139,112.821473 C272.806842,110.375686 270.000234,109.133186 267.234402,109.672627 L266.822612,107.806645 C270.333412,107.06749 273.926522,108.602981 275.919428,111.694108 L274.347139,112.821473 Z" id="Path"></path>
            <path d="M252.29353,216.172616 C252.053021,230.265672 251.491833,252.744679 249.928525,277.863708 C263.276772,262.334169 276.38451,243.97049 277.146122,230.188024 C278.228412,211.241987 267.124915,210.077272 252.29353,216.172616 Z" id="Path" fill="#261B43"></path>
            <path d="M270.721248,222.143042 L254.995062,196.020556 C254.995062,196.020556 211.74805,227.17113 188.51261,246.45856 C177.032495,226.267645 157.414078,189.696164 153.128692,175.751078 C155.498828,171.455651 157.183455,166.816935 158.121756,162.0024 C158.14506,161.912221 158.14506,161.817606 158.121756,161.727427 C158.121756,161.727427 158.121756,161.373889 158.121756,161.216762 C158.1389,160.981381 158.1389,160.745067 158.121756,160.509687 C158.121756,159.95974 158.121756,159.527639 158.121756,159.174101 C158.121756,152.84971 155.48762,148.960798 156.627768,140.947284 C157.414078,135.329967 151.005657,137.254782 149.747562,140.947284 L149.236461,144.246966 C147.624527,140.318773 137.913607,117.260277 134.217953,116.749612 C130.5223,116.238947 132.841912,122.445492 135.122209,128.534192 C136.105096,131.244646 136.852089,133.36587 137.481137,135.251403 C132.055603,136.508425 127.259116,145.778961 126.512122,149.667873 C125.765128,153.556785 135.593995,175.240412 138.306762,179.168606 C138.51689,179.43113 138.769348,179.656821 139.053755,179.836399 C141.058844,191.385287 158.711488,259.107343 170.820651,275.2915 C178.447851,285.308393 188.198087,284.522754 193.898829,279.219693 C207.895135,270.302694 250.906253,240.762679 270.721248,222.143042 Z" id="Path" fill="#F2D1B6"></path>
            <path d="M296.641744,196.680891 C295.077332,225.622414 241.887323,275.264618 241.887323,275.264618 L212.241715,226.371582 C212.241715,226.371582 299.535906,144.042018 296.641744,196.680891 Z" id="Path" fill="#6C4EBE"></path>
            <path d="M280.948906,125.042182 C279.768555,132.198019 278.037373,139.313198 284.529305,138.784642 C291.021236,138.256085 292.673727,127.115748 292.791763,125.001524 C293.342593,113.617238 283.270263,110.893141 280.948906,125.042182 Z" id="Path" fill="#F2D1B6"></path>
        </g>
    </g>
</svg>